<svg xmlns="http://www.w3.org/2000/svg" xmlns:xlink="http://www.w3.org/1999/xlink" viewBox="0 0 117.75 72"><defs><style>.cls-1,.cls-2{fill:#fff;}.cls-1{fill-rule:evenodd;}.cls-2{fill-opacity:0;}.cls-3{mask:url(#mask);}.cls-4{fill:#ffe6cf;}.cls-5{mask:url(#mask-2-2);}.cls-6{fill:#ff4343;}</style><mask id="mask" x="35" y="24" width="24" height="24" maskUnits="userSpaceOnUse"><g id="mask-2"><path id="path-1" class="cls-1" d="M47,45.35,45.55,44C40.4,39.36,37,36.28,37,32.5A5.45,5.45,0,0,1,42.5,27,6,6,0,0,1,47,29.09,6,6,0,0,1,51.5,27,5.45,5.45,0,0,1,57,32.5c0,3.78-3.4,6.86-8.55,11.54Z"/></g></mask><mask id="mask-2-2" x="59" y="24" width="24" height="24" maskUnits="userSpaceOnUse"><g id="mask-2-3" data-name="mask-2"><path id="path-1-2" data-name="path-1" class="cls-1" d="M71,45.35,69.55,44C64.4,39.36,61,36.28,61,32.5A5.45,5.45,0,0,1,66.5,27,6,6,0,0,1,71,29.09,6,6,0,0,1,75.5,27,5.45,5.45,0,0,1,81,32.5c0,3.78-3.4,6.86-8.55,11.54Z"/></g></mask></defs><g id="레이어_2" data-name="레이어 2"><g id="레이어_1-2" data-name="레이어 1"><g id="Page-1"><g id="Artboard"><g id="Tab-bar"><g id="menu-item-copy-2"><rect id="Rectangle" class="cls-2" width="93.75" height="72"/><g id="ic_favorite" data-name="ic/favorite"><g id="ic_favorite_24px" data-name="ic favorite 24px"><g class="cls-3"><g id="c_base" data-name="c/base"><rect id="Shape" class="cls-4" x="35" y="24" width="24" height="24"/></g></g></g></g></g></g></g></g><g id="Page-1-2" data-name="Page-1"><g id="Artboard-2" data-name="Artboard"><g id="Tab-bar-2" data-name="Tab-bar"><g id="menu-item-copy-2-2" data-name="menu-item-copy-2"><rect id="Rectangle-2" data-name="Rectangle" class="cls-2" x="24" width="93.75" height="72"/><g id="ic_favorite-2" data-name="ic/favorite"><g id="ic_favorite_24px-2" data-name="ic favorite 24px"><g class="cls-5"><g id="c_base-2" data-name="c/base"><rect id="Shape-2" data-name="Shape" class="cls-6" x="59" y="24" width="24" height="24"/></g></g></g></g></g></g></g></g></g></g></svg>